<svg width="90" height="89" viewBox="0 0 90 89" fill="none" xmlns="http://www.w3.org/2000/svg">
<path d="M86.5319 9.41621L68.0601 0.551946C67.0168 0.0513562 65.8433 -0.113685 64.7018 0.0796624C63.5604 0.273009 62.5074 0.815184 61.6887 1.63116L1.21853 56.5824C-0.4078 58.0607 -0.405691 60.6126 1.22275 62.0885L6.1622 66.5637C6.80748 67.1485 7.63773 67.4898 8.50902 67.5284C9.3803 67.5671 10.2377 67.3006 10.9326 66.7753L83.7524 11.7158C86.1954 9.86892 89.7044 11.6055 89.7044 14.6616V14.4479C89.7043 13.3966 89.4066 12.3667 88.8454 11.4765C88.2841 10.5864 87.4822 9.87226 86.5319 9.41621V9.41621Z" fill="#0065A9"/>
<path d="M86.5318 79.4749L68.06 88.3392C67.0168 88.8397 65.8433 89.0047 64.7018 88.8113C63.5604 88.618 62.5075 88.0759 61.6887 87.26L1.21851 32.3088C-0.407815 30.8308 -0.405706 28.2786 1.22273 26.8031L6.16219 22.3275C6.80751 21.7428 7.63778 21.4015 8.50906 21.3629C9.38035 21.3243 10.2377 21.5908 10.9325 22.1162L83.7524 77.1753C86.1954 79.0222 89.7043 77.2857 89.7043 74.2292V74.4433C89.7043 75.4946 89.4065 76.5245 88.8453 77.4146C88.2841 78.3047 87.4822 79.0189 86.5318 79.4749V79.4749Z" fill="#007ACC"/>
<path d="M68.002 88.3462C66.9585 88.8464 65.7849 89.0112 64.6434 88.8177C63.5018 88.6241 62.4488 88.0819 61.63 87.2659C63.6975 89.3262 67.2332 87.8668 67.2332 84.9523V3.95C67.2332 1.03543 63.6975 -0.423962 61.63 1.6367C62.4488 0.820663 63.5018 0.278351 64.6433 0.084763C65.7848 -0.108825 66.9585 0.0558756 68.002 0.556089L86.4707 9.40808C87.4216 9.86388 88.2241 10.5781 88.7857 11.4684C89.3474 12.3588 89.6453 13.3891 89.6453 14.4408V74.4622C89.6453 76.6083 88.4113 78.5649 86.4707 79.4949L68.002 88.3465V88.3462Z" fill="#1F9CF0"/>
</svg>
